# xmcd
#
# Track frame offsets:
#	150
#	11039
#	22305
#	39565
#	54084
#	64553
#	85041
#	102398
#	114056
#	130703
#	147112
#	156267
#	171248
#	189165
#
# Disc length: 2722 seconds
#
# Revision: 0
# Processed by: cddbd v1.4PL0 Copyright (c) Steve Scherf et al.
# Submitted via: dBpowerAMP V4.0
#
DISCID=ab0aa00e
DTITLE=Grupo Dois de Ouro - Destroçando a Macaxeira
DYEAR=1900
DGENRE=Samba
TTITLE0=Destroçando a Macaxeira
TTITLE1=Imitação
TTITLE2=Caminhando
TTITLE3=Shérida
TTITLE4=Cavucando o Côco
TTITLE5=Quando me Lembro
TTITLE6=Isto Aqui o Que é - Aquarela do Brasil
TTITLE7=Conversa de Bandolim
TTITLE8=A Choro de Juliana
TTITLE9=Há 1 Tom
TTITLE10=Luperceando
TTITLE11=Imagem
TTITLE12=Chorinho prá Você
TTITLE13=Apanhei-te Cavaquinho
EXTD=Chorinho
EXTT0=
EXTT1=
EXTT2=
EXTT3=
EXTT4=
EXTT5=
EXTT6=
EXTT7=
EXTT8=
EXTT9=
EXTT10=
EXTT11=
EXTT12=
EXTT13=
PLAYORDER=
